<svg xmlns="http://www.w3.org/2000/svg" viewBox="0 0 32 32" fill="none">
  <rect width="32" height="32" rx="7" fill="#07090F"/>
  <defs>
    <linearGradient id="fA" x1="4" y1="2" x2="4" y2="30" gradientUnits="userSpaceOnUse">
      <stop offset="0%"   stop-color="#FFF8C0"/>
      <stop offset="20%"  stop-color="#F5CA40"/>
      <stop offset="70%"  stop-color="#C88A20"/>
      <stop offset="100%" stop-color="#8B5E10"/>
    </linearGradient>
    <linearGradient id="fB" x1="11" y1="2" x2="11" y2="30" gradientUnits="userSpaceOnUse">
      <stop offset="0%"   stop-color="#D4A030"/>
      <stop offset="100%" stop-color="#6A4210"/>
    </linearGradient>
    <linearGradient id="fC" x1="26" y1="2" x2="26" y2="30" gradientUnits="userSpaceOnUse">
      <stop offset="0%"   stop-color="#BF8020"/>
      <stop offset="100%" stop-color="#3E2008"/>
    </linearGradient>
    <linearGradient id="fSlash" x1="20" y1="1" x2="11" y2="31" gradientUnits="userSpaceOnUse">
      <stop offset="0%"   stop-color="#FFF8C0" stop-opacity="0.85"/>
      <stop offset="100%" stop-color="#C88A20" stop-opacity="0"/>
    </linearGradient>
    <clipPath id="fClip">
      <polygon points="1,30 3,2 8,2 16,17 24,2 29,2 31,30 26,30 16,24 6,30"/>
    </clipPath>
  </defs>
  <polygon points="1,30 6,30 8,2 3,2"        fill="url(#fA)"/>
  <polygon points="6,30 15,30 17,17 8,2"     fill="url(#fB)"/>
  <polygon points="15,30 16,30 16,24"        fill="#0A0600"/>
  <polygon points="17,30 26,30 24,2 15,17"   fill="url(#fB)"/>
  <polygon points="26,30 31,30 29,2 24,2"    fill="url(#fC)"/>
  <g clip-path="url(#fClip)">
    <polygon points="13,0 21,0 11,32 3,32"   fill="#080500" opacity="0.88"/>
    <polygon points="20,0 22,0 13,32 11,32"  fill="url(#fSlash)"/>
  </g>
</svg>
