<svg xmlns="http://www.w3.org/2000/svg" viewBox="0 0 32 32" fill="none">
  <rect width="32" height="32" rx="7" fill="#07090F"/>
  <defs>
    <linearGradient id="fA" x1="6" y1="0" x2="6" y2="30" gradientUnits="userSpaceOnUse">
      <stop offset="0%"   stop-color="#FFFCE0"/>
      <stop offset="10%"  stop-color="#FFE060"/>
      <stop offset="40%"  stop-color="#F0C040"/>
      <stop offset="100%" stop-color="#8B5E10"/>
    </linearGradient>
    <linearGradient id="fB" x1="12" y1="2" x2="12" y2="30" gradientUnits="userSpaceOnUse">
      <stop offset="0%"   stop-color="#D8A020"/>
      <stop offset="100%" stop-color="#5A380A"/>
    </linearGradient>
    <linearGradient id="fC" x1="20" y1="2" x2="20" y2="30" gradientUnits="userSpaceOnUse">
      <stop offset="0%"   stop-color="#B87A18"/>
      <stop offset="100%" stop-color="#3E2206"/>
    </linearGradient>
    <linearGradient id="fD" x1="26" y1="0" x2="26" y2="30" gradientUnits="userSpaceOnUse">
      <stop offset="0%"   stop-color="#9A6814"/>
      <stop offset="100%" stop-color="#1E0C02"/>
    </linearGradient>
    <linearGradient id="fS" x1="19" y1="0" x2="10" y2="30" gradientUnits="userSpaceOnUse">
      <stop offset="0%"   stop-color="#FFF8C0" stop-opacity="0.95"/>
      <stop offset="100%" stop-color="#C88820" stop-opacity="0"/>
    </linearGradient>
    <clipPath id="fC2">
      <polygon points="1,30 3,2 9,2 17,16 23,2 29,2 31,30 25,30 16,23 7,30"/>
    </clipPath>
  </defs>
  <polygon points="3,2 9,2 10,0 4,0"          fill="#FFFCE0"/>
  <polygon points="1,30 7,30 9,2 3,2"         fill="url(#fA)"/>
  <polygon points="7,30 15,30 17,16 9,2"      fill="url(#fB)"/>
  <polygon points="15,30 17,30 16,23"         fill="#060300"/>
  <polygon points="17,30 25,30 23,2 15,16"    fill="url(#fC)"/>
  <polygon points="25,30 31,30 29,2 23,2"     fill="url(#fD)"/>
  <g clip-path="url(#fC2)">
    <polygon points="14,0 19,0 10,32 5,32"    fill="#050200" opacity="0.93"/>
    <polygon points="18,0 21,0 12,32 9,32"    fill="url(#fS)"/>
  </g>
</svg>
