<svg xmlns="http://www.w3.org/2000/svg" viewBox="0 0 80 80" fill="none">
  <defs>
    <linearGradient id="lgA" x1="11" y1="4" x2="11" y2="76" gradientUnits="userSpaceOnUse">
      <stop offset="0%"   stop-color="#FFF8C0"/>
      <stop offset="18%"  stop-color="#F5CA40"/>
      <stop offset="65%"  stop-color="#C88A20"/>
      <stop offset="100%" stop-color="#8B5E10"/>
    </linearGradient>
    <linearGradient id="lgB" x1="28" y1="4" x2="28" y2="76" gradientUnits="userSpaceOnUse">
      <stop offset="0%"   stop-color="#D4A030"/>
      <stop offset="55%"  stop-color="#A07018"/>
      <stop offset="100%" stop-color="#6A4210"/>
    </linearGradient>
    <linearGradient id="lgC" x1="66" y1="4" x2="66" y2="76" gradientUnits="userSpaceOnUse">
      <stop offset="0%"   stop-color="#BF8020"/>
      <stop offset="55%"  stop-color="#7A5010"/>
      <stop offset="100%" stop-color="#3E2008"/>
    </linearGradient>
    <linearGradient id="lgSlashEdge" x1="50" y1="2" x2="28" y2="78" gradientUnits="userSpaceOnUse">
      <stop offset="0%"   stop-color="#FFF8C0" stop-opacity="0.85"/>
      <stop offset="60%"  stop-color="#F0C040" stop-opacity="0.3"/>
      <stop offset="100%" stop-color="#C88A20" stop-opacity="0"/>
    </linearGradient>
    <clipPath id="mClip">
      <polygon points="2,76 8,4 20,4 40,44 60,4 72,4 78,76 66,76 40,62 14,76"/>
    </clipPath>
  </defs>
  <polygon points="2,76 14,76 20,4 8,4"       fill="url(#lgA)"/>
  <polygon points="14,76 38,76 44,42 20,4"    fill="url(#lgB)"/>
  <polygon points="38,76 42,76 40,62"         fill="#0A0600"/>
  <polygon points="42,76 66,76 60,4 36,42"    fill="url(#lgB)"/>
  <polygon points="66,76 78,76 72,4 60,4"     fill="url(#lgC)"/>
  <g clip-path="url(#mClip)">
    <polygon points="34,0 52,0 28,80 10,80"   fill="#080500" opacity="0.88"/>
    <polygon points="50,0 56,0 32,80 26,80"   fill="url(#lgSlashEdge)"/>
  </g>
</svg>
