<svg xmlns="http://www.w3.org/2000/svg" viewBox="0 0 340 80" fill="none">
  <defs>
    <linearGradient id="lgA" x1="15" y1="0" x2="15" y2="76" gradientUnits="userSpaceOnUse">
      <stop offset="0%"   stop-color="#FFFCE0"/>
      <stop offset="8%"   stop-color="#FFE060"/>
      <stop offset="35%"  stop-color="#F0C040"/>
      <stop offset="72%"  stop-color="#C88820"/>
      <stop offset="100%" stop-color="#8B5E10"/>
    </linearGradient>
    <linearGradient id="lgB" x1="30" y1="4" x2="30" y2="76" gradientUnits="userSpaceOnUse">
      <stop offset="0%"   stop-color="#D8A020"/>
      <stop offset="50%"  stop-color="#A06814"/>
      <stop offset="100%" stop-color="#5A380A"/>
    </linearGradient>
    <linearGradient id="lgC" x1="50" y1="4" x2="50" y2="76" gradientUnits="userSpaceOnUse">
      <stop offset="0%"   stop-color="#B87A18"/>
      <stop offset="50%"  stop-color="#804E0E"/>
      <stop offset="100%" stop-color="#3E2206"/>
    </linearGradient>
    <linearGradient id="lgD" x1="66" y1="0" x2="66" y2="76" gradientUnits="userSpaceOnUse">
      <stop offset="0%"   stop-color="#9A6814"/>
      <stop offset="45%"  stop-color="#5C3808"/>
      <stop offset="100%" stop-color="#1E0C02"/>
    </linearGradient>
    <linearGradient id="lgT" x1="8" y1="2" x2="24" y2="2" gradientUnits="userSpaceOnUse">
      <stop offset="0%"   stop-color="#FFFFF0"/>
      <stop offset="100%" stop-color="#F0D060"/>
    </linearGradient>
    <linearGradient id="lgS" x1="48" y1="0" x2="26" y2="76" gradientUnits="userSpaceOnUse">
      <stop offset="0%"   stop-color="#FFF8C0" stop-opacity="0.95"/>
      <stop offset="45%"  stop-color="#F0C040" stop-opacity="0.45"/>
      <stop offset="100%" stop-color="#C88820" stop-opacity="0"/>
    </linearGradient>
    <clipPath id="mC">
      <polygon points="2,76 8,4 22,4 44,40 58,4 72,4 78,76 64,76 40,58 16,76"/>
    </clipPath>
  </defs>

  <!-- Top lit edge (3D top face of left leg) -->
  <polygon points="8,4 22,4 24,0 10,0"         fill="url(#lgT)"/>

  <!-- F1: left outer leg — ultra bright -->
  <polygon points="2,76 16,76 22,4 8,4"         fill="url(#lgA)"/>
  <!-- F2: left inner diagonal — medium gold -->
  <polygon points="16,76 38,76 44,40 22,4"       fill="url(#lgB)"/>
  <!-- F3: center notch — near black -->
  <polygon points="38,76 42,76 40,58"            fill="#060300"/>
  <!-- F4: right inner diagonal — medium-dark -->
  <polygon points="42,76 64,76 58,4 36,40"       fill="url(#lgC)"/>
  <!-- F5: right outer leg — dark gold -->
  <polygon points="64,76 78,76 72,4 58,4"        fill="url(#lgD)"/>

  <!-- Diagonal slash — clipped to M -->
  <g clip-path="url(#mC)">
    <polygon points="36,0 48,0 26,80 14,80"      fill="#050200" opacity="0.93"/>
    <polygon points="46,0 52,0 30,80 24,80"      fill="url(#lgS)"/>
  </g>

  <!-- WORDMARK -->
  <text
    x="98" y="48"
    font-family="'Space Grotesk', Helvetica Neue, Arial, sans-serif"
    font-size="34" font-weight="800"
    letter-spacing="-0.01em"
    fill="#FFFFFF">MOVANTIA</text>
  <text
    x="100" y="66"
    font-family="'DM Sans', Helvetica Neue, Arial, sans-serif"
    font-size="12.5" font-weight="400"
    letter-spacing="0.09em"
    fill="#6A7890">Fill Empty Miles</text>
</svg>
